<?xml version="1.0" encoding="utf-8"?>
<svg viewBox="0 0 500 500" xmlns="http://www.w3.org/2000/svg" xmlns:bx="https://boxy-svg.com">
    <!-- cross-bones -->
    <line
       style="stroke-width: 25px; fill: rgb(0, 0, 0); stroke: rgb(0, 0, 0);"
       x1="54.13"
       y1="472.66"
       x2="449.78"
       y2="306.71"
    />
    <line
       style="stroke-width: 25px; fill: rgb(0, 0, 0); stroke: rgb(0, 0, 0);"
       x1="54.13"
       y1="306.71"
       x2="449.78"
       y2="472.66"
    />
    <!-- mouth -->
    <line
       style="stroke-width: 152px; fill: rgb(0, 0, 0); stroke: rgb(0, 0, 0);"
       x1="173.60"
       y1="245"
       x2="326"
       y2="245"
    />
    <line
       style="stroke-width: 53px; fill: rgb(255, 255, 255); stroke: rgb(255, 255, 255);"
       x1="198.89"
       y1="295"
       x2="212.39"
       y2="295"
    />
    <line
       style="stroke-width: 53px; fill: rgb(255, 255, 255); stroke: rgb(255, 255, 255);"
       x1="242.72"
       y1="295"
       x2="256.26"
       y2="295"
    />
    <line
       style="stroke-width: 53px; fill: rgb(255, 255, 255); stroke: rgb(255, 255, 255);"
       x1="286.54"
       y1="295"
       x2="300.0"
       y2="295"
    />
    <!-- head -->
    <circle
        cx="250"
        cy="145.806"
        r="130"
        style="fill: rgb(0, 0, 0);"
    />
    <!-- nose -->
    <path
        d="M 249.84 194.83 L 267.17 222.68 L 232.5 222.68 L 249.84 194.83 Z"
        style="fill: rgb(255, 255, 255);"
        bx:shape="triangle 81.52 104.161 94.891 127.95 0.5 0 1@5c9dbeed"
    />
    <!-- left-eye -->
    <circle
        cx="197.468"
        cy="129.042"
        r="25"
        style="fill: rgb(255, 255, 255);"
    />
    <line
       style="stroke-width: 60px; fill: rgb(0, 0, 0); stroke: rgb(0, 0, 0);"
       x1="191.79"
       y1="83.12"
       x2="243.97"
       y2="120.18"
    />
    <!-- right-eye -->
        <circle
        cx="298.663"
        cy="129.042"
        r="25"
        style="fill: rgb(255, 255, 255);"
    />
    <line
       style="stroke-width: 50px; fill: rgb(0, 0, 0); stroke: rgb(0, 0, 0);"
       x1="269.35"
       y1="118.1"
       x2="330.47"
       y2="99.62"
    />

    

   


    
    <!-- <path d="M 128.965 104.161 L 176.411 232.111 L 81.52 232.111 L 128.965 104.161 Z" style="fill: rgb(12, 236, 224);" bx:shape="triangle 81.52 104.161 94.891 127.95 0.5 0 1@5c9dbeed"/>
    <circle cx="250" cy="250" r="50" style="fill: rgb(115, 173, 127);"/>
    <line style="stroke-width: 33px; fill: rgb(0, 207, 87); stroke: rgb(239, 50, 50);" x1="156.681" y1="300.128" x2="553.802" y2="70.133"/>
    <circle cx="400" cy="450" r="150" style="fill: rgb(100, 0, 255);"/>
    <circle cx="100" cy="400" r="70" style="fill: rgb(250, 0, 250);"/>
    <path d="M 300.965 300.161 L 400.411 400.111 L 350.52 400.111 L 300.965 300.161 Z" style="fill: rgb(100, 250, 100);" bx:shape="triangle 81.52 104.161 94.891 127.95 0.5 0 1@5c9dbeed"/>
    <line style="stroke-width: 50px; fill: rgb(0, 207, 87); stroke: rgb(0, 255, 0);" x1="30.681" y1="30.128" x2="420" y2="120"/> -->
</svg>