# Blender 5.0.1
# www.blender.org
mtllib triplatform.mtl
o triplatform
v -8.000000 1.394788 4.106601
v -8.000000 -0.250910 4.106601
v 0.000000 1.394788 -7.893399
v 0.000000 -0.250910 -7.893399
v 8.000000 1.394788 4.106601
v 8.000000 -0.250910 4.106601
v 0.000000 1.394788 -7.893399
v 0.000000 -0.250910 -7.893399
vn -0.8321 -0.0000 -0.5547
vn -0.0000 -1.0000 -0.0000
vn 0.8321 -0.0000 -0.5547
vn -0.0000 -0.0000 1.0000
vn -0.0000 1.0000 -0.0000
vt 0.625000 0.000000
vt 0.375000 0.250000
vt 0.375000 0.000000
vt 0.625000 0.250000
vt 0.375000 0.500000
vt 0.625000 0.500000
vt 0.375000 0.750000
vt 0.625000 0.750000
vt 0.375000 1.000000
vt 0.125000 0.750000
vt 0.125000 0.500000
vt 0.875000 0.500000
vt 0.625000 1.000000
vt 0.875000 0.750000
s 0
f 2/1/1 1/3/1 3/2/1
f 4/4/2 3/2/2 7/5/2
f 8/6/3 7/5/3 5/7/3
f 6/8/4 5/7/4 1/9/4
f 7/5/2 3/11/2 1/10/2
f 4/12/2 8/6/2 6/8/2
f 2/1/1 3/2/1 4/4/1
f 4/4/2 7/5/2 8/6/2
f 8/6/3 5/7/3 6/8/3
f 6/8/4 1/9/4 2/13/4
f 7/5/5 1/10/5 5/7/5
f 4/12/2 6/8/2 2/14/2
